<svg xmlns="http://www.w3.org/2000/svg" version="1.1" xmlns:xlink="http://www.w3.org/1999/xlink" width="1500" height="581" viewBox="0 0 1500 581"><svg xml:space="preserve" width="1500" height="581" data-version="2" data-id="lg_gks3AFVOhqhQGx6psx" viewBox="0 0 416 581" x="0" y="0"><rect width="100%" height="100%" fill="transparent"></rect><path fill="#f7d3c1" d="m138.812 494.035.2-.52q2.66-1.63 4.12-3.41 1.47-1.79 2.08-4.29.62-2.51.62-6.47l.07-27.63q0-2.08-.46-2.76-.45-.68-1.95-.68-.78 0-1.72.1-.94.09-1.33.16l-.13-.26.45-2.86h7.02q1.76 0 4.26-.23t3.28-.36l-.26 2.93q-1.62.26-2.34.58-.71.33-1.01 1.01-.29.68-.35 2.11-.26 6.05-.49 14.04-.23 8-.36 13.78-.06 6.63-2.57 10.63-2.5 4-8.02 6.27Z"></path><rect width="16.51" height="51.35" x="-8.26" y="-25.68" fill="none" rx="0" ry="0" transform="translate(147.57 471)"></rect><path fill="#f7d3c1" d="M176.192 487.405q-4.42 0-7.84-1.95-3.41-1.95-5.26-5.53-1.85-3.57-1.85-8.25 0-5.07 2.3-9.13 2.31-4.07 6.31-6.37 4-2.31 8.94-2.31 4.48 0 7.93 1.95 3.44 1.95 5.33 5.49 1.88 3.54 1.88 8.22 0 5.07-2.31 9.14-2.3 4.06-6.37 6.4-4.06 2.34-9.06 2.34m1.56-3.12q4.74 0 7.67-3.41 2.92-3.42 2.92-9.07 0-4.29-1.4-7.54-1.39-3.25-3.96-5.01-2.57-1.75-5.95-1.75-4.61 0-7.44 3.38t-2.83 9.03q0 4.29 1.37 7.54 1.36 3.25 3.86 5.04 2.51 1.79 5.76 1.79"></path><rect width="32.69" height="33.54" x="-16.34" y="-16.77" fill="none" rx="0" ry="0" transform="translate(178.09 471.13)"></rect><path fill="#f7d3c1" d="M200.432 484.735q2.41-.45 3.25-1.33.85-.88.85-3.02l.06-20.67q0-1.63-.39-2.18-.39-.55-1.56-.55l-1.75.06-.2-.26.39-2.47q.65 0 2.44.07 1.79.06 3.61.06 1.49 0 3.57-.19 2.08-.2 2.73-.26l-.26 2.66q-1.56.26-2.21.62-.65.36-.88 1.11-.22.74-.35 2.56l-.33 7.87 8.45.06q3.45 0 7.48-.45l.06-8.71q0-1.63-.39-2.18-.39-.55-1.56-.55l-1.82.06-.13-.26.39-2.47q.59.07 2.28.1t3.31.03q1.56 0 3.8-.19 2.25-.2 2.96-.26l-.19 2.66q-2.02.26-2.67.82-.65.55-.71 2.04-.26 5.14-.49 11.48-.23 6.33-.23 9.78 0 2.08.46 2.76.45.68 1.82.68.78 0 1.43-.06.65-.07.84-.07l.2.26-.52 2.6q-.72 0-2.7-.06-1.98-.07-4.13-.07l-6.5.07.52-2.6q1.69 0 2.5-.42.82-.43 1.14-1.5.33-1.07.33-3.22v-7.28l-7.48-.06q-1.04 0-4.22.23-3.19.22-4.29.29l-.2 8.45q0 2.08.46 2.79.45.72 1.82.72.78 0 1.43-.07.65-.06.84-.13l.13.26-.45 2.6q-.52 0-1.99-.06-1.46-.07-3.08-.07-2.41 0-5.27.2-2.86.19-2.92.39Z"></path><rect width="34.58" height="33.41" x="-17.29" y="-16.7" fill="none" rx="0" ry="0" transform="translate(217.9 471.2)"></rect><path fill="#f7d3c1" d="M268.102 459.195q0-2.15-1.76-2.15h-1.95l-.13-.26.46-2.53q.58.06 2.21.13 1.62.06 3.31.06 1.43 0 3.22-.16 1.79-.16 2.31-.23l-.26 2.67q-1.89.26-2.7 1.01-.81.74-.88 2.24l-.78 27.95-2.53.71q-6.18-9.03-12.48-17.68-6.31-8.64-6.31-8.51h-.32l-.2 19.69q0 1.24.39 1.69.39.46 1.3.46l2.6-.07.2.2-.52 2.6q-.59-.07-2.31-.13-1.72-.07-3.61-.07-1.49 0-3.18.17-1.69.16-2.21.22l.32-2.66q1.63-.2 2.41-.94.78-.75.84-2.25l.72-21.45q0-1.62-.95-2.24-.94-.62-3.6-.94l-.26-.33.45-2.21q.52.07 1.98.17 1.47.09 2.96.09 1.43 0 2.54-.06 1.1-.07 1.43-.13 5.26 7.73 11.14 15.79 5.89 8.06 5.89 7.93h.32Z"></path><rect width="34.32" height="34.58" x="-17.16" y="-17.29" fill="none" rx="0" ry="0" transform="translate(259.11 471.85)"></rect><path fill="#f7d3c1" d="M100.842 574.625q-5.66-8.78-11.02-16.74-5.36-7.96-8.81-12.87l-4.35-6.21h-.33l-.32 27.76q0 1.43.45 2.01.46.59 1.56.59l3.32-.07.13.26-.59 2.93q-.71-.07-2.92-.17-2.21-.09-3.97-.09-1.62 0-3.54.22l-2.5.3.32-2.99q2.02-.26 2.99-1.21.98-.94 1.04-2.89l.85-28.4q0-2.02-1.21-2.86-1.2-.85-4.45-1.17l-.19-.33.52-2.4q.58.06 2.53.19 1.95.13 3.06.13 1.36 0 2.66-.1 1.3-.09 1.69-.16 4.81 7.48 9.65 14.63 4.85 7.15 8.1 11.76 3.25 4.62 4.09 5.85h.33v-26.32q0-2.8-2.15-2.8l-2.47.07-.13-.26.59-2.93q.65.07 2.47.16 1.82.1 3.7.1 1.69 0 3.74-.23l2.7-.29-.33 2.99q-2.27.33-3.31 1.27t-1.11 2.83l-.91 36.53z"></path><rect width="41.08" height="44.53" x="-20.54" y="-22.27" fill="none" rx="0" ry="0" transform="translate(88.34 552.86)"></rect><path fill="#f7d3c1" d="M128.142 572.605q-.85-.13-3.42-.36-2.56-.22-4.32-.22-1.69 0-3.7.22-2.02.23-2.6.36l.32-2.73q2.34-.39 3.19-1.3.84-.91.84-2.99l.07-20.67q0-1.62-.39-2.18-.39-.55-1.5-.55-.58 0-1.1.07-.52.06-.72.06l-.13-.32.39-2.47q.65 0 2.37.06 1.73.07 3.48.07 2.34 0 4.81-.1 2.47-.1 3.38-.1 5.2 0 9.17 1.89 3.96 1.88 6.14 5.29 2.18 3.42 2.18 7.97 0 5.07-2.44 9.16-2.44 4.1-6.66 6.47-4.23 2.37-9.36 2.37m-2.47-30.09q-1.04 0-1.4.22-.36.23-.42.95-.78 18.26-.78 21.45 0 1.75.52 2.69.52.95 1.82 1.3 1.3.36 3.83.36 5.46 0 8.55-3.57 3.09-3.58 3.09-10.01 0-6.57-3.9-9.98t-11.31-3.41"></path><rect width="32.5" height="33.15" x="-16.25" y="-16.57" fill="none" rx="0" ry="0" transform="translate(130.85 556.53)"></rect><path fill="#f7d3c1" d="M153.032 569.945q2.47-.46 3.32-1.34.84-.87.84-3.02l.07-20.67q0-1.62-.39-2.18-.39-.55-1.56-.55l-2.15.07-.13-.26.33-2.47q.39 0 2.11.06 1.72.07 4.52.07 1.49 0 3.67-.2 2.18-.19 2.83-.26l-.26 2.67q-2.15.26-2.86.81-.72.55-.85 2.05-.26 5.2-.49 11.5-.22 6.31-.22 9.75 0 2.08.45 2.8.46.71 1.82.71.91 0 1.66-.06.75-.07 1.01-.13l.13.26-.46 2.6q-.78 0-2.92-.07-2.15-.06-4.29-.06-1.76 0-3.81.22-2.04.23-2.69.36Z"></path><rect width="14.17" height="33.41" x="-7.08" y="-16.7" fill="none" rx="0" ry="0" transform="translate(160.3 556.4)"></rect><path fill="#f7d3c1" d="M198.012 572.805q-1.43 0-2.92-1.27-1.5-1.27-2.73-3.48l-5.46-9.55h-4.23l-.13 6.95q0 1.89.26 2.7.26.81 1.01 1.07t2.57.33l.13.19-.52 2.47q-.78-.06-2.83-.1-2.05-.03-4.13-.03-2.01 0-3.51.07-1.49.06-2.01.13l.45-2.67q2.41-.32 3.19-1.1.78-.78.78-2.93l.06-20.73q0-1.56-.39-2.12-.39-.55-1.49-.55l-1.82.07-.2-.26.39-2.47q.65 0 2.47.06 1.82.07 3.64.07 1.89 0 4.03-.1 2.15-.1 2.93-.1 5.26 0 8.25 2.18t2.99 6.01q0 2.99-2.01 5.53-2.02 2.53-5.66 4.16l5.53 8.32q1.56 2.34 2.99 3.31 1.43.98 3.44.98l.26.32-.32 2.02zm-9.94-17.16q1.23-.52 2.17-1.01.95-.49 2.12-2.05 1.17-1.56 1.17-4.03 0-6.3-9.3-6.3-.52 0-.71.22-.2.23-.2.95-.52 7.93-.52 11.7z"></path><rect width="29.83" height="33.35" x="-14.91" y="-16.68" fill="none" rx="0" ry="0" transform="translate(188.93 556.63)"></rect><path fill="#f7d3c1" d="m222.652 572.155.19-2.34q2.73-.2 3.67-.59.95-.39.95-1.3 0-1.04-.46-2.21l-1.56-5q-1.3-.07-5.39-.07-1.89 0-5.59.39l-1.82 4.81q-.46 1.5-.46 1.82 0 1.04.72 1.5.71.45 2.34.45h2.79l.2.26-.39 2.47q-.65-.06-2.96-.19t-4.52-.13q-2.08 0-3.74.06-1.65.07-2.24.07l.39-2.67q1.43-.19 2.28-1.01.84-.81 1.69-2.76l10.2-25.8 4.62-.85.45.07q0 .26 2.96 10.27t5.3 16.57q.65 1.89 1.65 2.63 1.01.75 3.22.95l.13.26-.32 2.34q-.65 0-2.41-.07-1.75-.06-3.51-.06-2.66 0-5.07.19l-3.12.26Zm-2.73-14.17q2.27 0 4.74-.26l-3.96-12.61h-.46l-4.74 12.87Z"></path><rect width="32.89" height="33.41" x="-16.45" y="-16.7" fill="none" rx="0" ry="0" transform="translate(221.33 556.27)"></rect><path fill="#f7d3c1" d="M267.502 544.395q0-2.14-1.76-2.14h-1.95l-.13-.26.46-2.54q.58.07 2.21.13 1.62.07 3.31.07 1.43 0 3.22-.17 1.79-.16 2.31-.22l-.26 2.66q-1.89.26-2.7 1.01-.81.75-.88 2.24l-.78 27.95-2.53.72q-6.18-9.04-12.48-17.68-6.31-8.65-6.31-8.52h-.32l-.2 19.7q0 1.23.39 1.69.39.45 1.3.45l2.6-.06.2.19-.52 2.6q-.59-.06-2.31-.13-1.72-.06-3.61-.06-1.49 0-3.18.16-1.69.16-2.21.23l.32-2.67q1.63-.19 2.41-.94.78-.75.84-2.24l.72-21.45q0-1.63-.95-2.25-.94-.61-3.6-.94l-.26-.32.45-2.21q.52.06 1.98.16 1.47.1 2.96.1 1.43 0 2.54-.07 1.1-.06 1.43-.13 5.26 7.74 11.14 15.8 5.89 8.06 5.89 7.93h.32Z"></path><rect width="34.32" height="34.58" x="-17.16" y="-17.29" fill="none" rx="0" ry="0" transform="translate(258.51 557.05)"></rect><path fill="#f7d3c1" d="M295.772 572.605q-7.15 0-11.41-4.26-4.25-4.25-4.25-11.47 0-5.33 2.34-9.36 2.34-4.03 6.59-6.24 4.26-2.21 9.85-2.21 2.02 0 4.32.26 2.31.26 3.97.59 1.66.32 2.11.39l.26.39q-.06.32-.36 1.52-.29 1.21-.58 3.12-.29 1.92-.42 4.07l-3.19.26q0-.26.07-1.01.06-.75.06-1.72 0-2.28-1.75-3.29-1.76-1-5.72-1-5.79 0-8.88 3.21-3.08 3.22-3.08 9.33 0 6.57 3.05 10.37 3.06 3.8 8.26 3.8 1.82 0 3.31-.39 1.5-.39 2.37-.78.88-.39 1.08-.52v-5.72q0-1.62-.56-2.14-.55-.52-2.24-.52h-3.44l-.13-.26.52-2.86q.26 0 2.43.06 2.18.07 4.46.07 1.49 0 2.95-.1 1.47-.1 1.86-.16l.26 1.43q-1.04.78-1.4 2.4-.36 1.63-.36 5.59 0 2.93.33 4.42l-.33.52q-.45.2-2.11.72t-4.39 1q-2.73.49-5.85.49"></path><rect width="29.77" height="33.54" x="-14.88" y="-16.77" fill="none" rx="0" ry="0" transform="translate(295.5 556.34)"></rect><path fill="#f7d3c1" d="M332.242 572.605q-5.79 0-8.81-2.86-3.02-2.86-3.02-8.25v-16.58q0-1.62-.39-2.18-.39-.55-1.56-.55l-1.76.07-.13-.2.39-2.53q.72 0 2.6.06 1.89.07 3.84.07 1.43 0 3.31-.17 1.89-.16 2.47-.22l-.26 2.6q-1.88.26-2.53.84-.65.59-.78 2.02l-.39 14.88q0 4.62 2.14 7.12 2.15 2.5 6.18 2.5 4.09 0 6.2-2.05 2.12-2.04 2.12-5.94 0-4.03-.1-9.14-.1-5.1-.16-7.18-.13-1.75-.46-2.24-.32-.49-1.43-.49l-2.21.07-.06-.2.39-2.53q.65 0 2.43.06 1.79.07 3.61.07 1.5 0 3.22-.17 1.72-.16 2.24-.22l-.19 2.6q-2.28.32-2.93.84-.65.52-.65 1.95v16.64q0 5.4-3.48 8.35-3.47 2.96-9.84 2.96"></path><rect width="32.76" height="33.34" x="-16.38" y="-16.67" fill="none" rx="0" ry="0" transform="translate(333.45 556.43)"></rect><path fill="#f7d3c1" d="M26.212 556.925h-.79q-.4 0-.79-.04-2.85-.14-4.61-1.87-1.77-1.73-1.77-4.71 0-2.6 1.48-5.87 1.87-4.14 7.06-7.85 2.98-2.12 6.37-3.4 3.38-1.28 6.84-1.28 2.01 0 3.69.54 1.67.54 2.66 1.62.99 1.08.99 2.74 0 .57-.14 1.2-.15.63-.47 1.24l-.4.76q.29.97.29 1.98 0 4.5-4.61 8.6-7.05 6.34-15.8 6.34m-.22-.72q7.1 0 13.5-5.72 4.61-4.11 4.97-7.82-1.87 2.06-6.48 4.9l-.29.07q-.28 0 .94-1.01l2.02-1.65q1.29-1.08 2.23-2.02.93-.93 1.55-1.69-.26-2.02-1.95-3.46-1.44-1.26-3.45-1.87-1.01-.25-3.32-.32-1.9-.07-1.9-.18 0-.04.07-.11 1.69-.54 3.24-.54.72 0 1.58.11.87.11 1.87.36 3.78.9 5.3 3.67.36-.86.36-1.76 0-1.48-.85-2.49-.85-1.01-2.27-1.51t-3.15-.5q-5.43 0-10.44 3.49-4.64 3.24-7.34 8.35-1.98 3.71-1.98 6.66 0 4.75 4.79 5 .25.04.5.04z"></path><rect width="29.09" height="25.02" x="-14.54" y="-12.51" fill="none" rx="0" ry="0" transform="translate(33.3 544.91)"></rect><path fill="#f7d3c1" d="M54.792 554.875q-.97 0-1.36-.56-.4-.56-.4-1.39 0-2.08 1.44-4.46l2.3-3.74q-2.44 1.8-4.86 4.5-.64.72-1.45 1.69-.81.97-1.79 2.23-1.29 1.69-1.54 1.69-.51 0-.83-.45-.33-.45-.33-.81 0-.29.18-1.06t.44-1.35q.25-.61.52-1.21.27-.59.52-1.17l-2.16 2.27-.43.43q-.36.36-.58.36-.18 0-.18-.25 0-.07.06-.2.05-.12.23-.3.54-.54 1.12-1.15.57-.62 1.18-1.41.33-.39.98-1.2.64-.81 1.42-1.75.77-.94 1.46-1.73.18-.25.39-.34.22-.09.29-.09.97 0 .97.76 0 .21-.11.43-3.24 4.46-3.88 6.8 4.17-4.17 6.71-6.28 2.54-2.11 3.62-2.11.57 0 .88.18.31.18.31.69 0 .18-.04.29-.11.25-1.48 2.01-.82 1.01-1.45 1.84-.63.83-1.03 1.44-.65 1.01-.97 1.89-.33.88-.33 1.49 0 .25.08.61.07.36.43.36.83 0 2.59-1.44.83-.72 1.55-1.45.72-.74 1.37-1.46.14-.15.46-.56.33-.41.4-.41.14 0 .14.28 0 .15-.16.49-.16.34-.34.52-.4.47-1.17 1.3-.77.83-1.73 1.69-.95.86-1.85 1.48-.9.61-1.59.61"></path><rect width="17.35" height="11.85" x="-8.68" y="-5.92" fill="none" rx="0" ry="0" transform="translate(53.46 549.45)"></rect><path fill="#f7d3c1" d="M61.962 555.265q-1.15 0-2.09-.73-.94-.74-.94-1.97 0-2.55 3.14-5.83 3.2-3.31 5.72-3.31.83 0 1.35.45.52.45.52 1.1 0 2.01-3.2 3.96-2.85 1.73-4.79 1.73-.29 0-.5-.08-.54.98-.54 2.06 0 1.87 1.76 1.87 1.8 0 4.64-2.41 2.2-1.77 3.75-3.75.32-.43.57-.43.22 0 .22.22 0 .21-.29.61-1.01 1.33-2.16 2.45-1.15 1.11-2.48 2.05-2.77 2.01-4.68 2.01m.21-5.4q1.37 0 3.57-1.36.72-.51 1.42-1.14.7-.63 1.15-1.28.45-.64.45-1.15 0-.47-.75-.47-1.08 0-3.03 1.62-.93.8-1.8 1.73-.86.94-1.47 1.98.21.07.46.07"></path><rect width="12.64" height="11.84" x="-6.32" y="-5.92" fill="none" rx="0" ry="0" transform="translate(65.75 549.85)"></rect><path fill="#f7d3c1" d="M86.552 558.225q-1.48 0-3.68-1.77-1.54-.25-2.64-.66-1.1-.42-1.82-.99-1.01-.87-1.76-2.31-.76-1.44-.76-2.77 0-1.01.47-1.8 1.08-1.91 2.73-1.91 1.26 0 1.48 2.13.25 1.98.41 3.15.17 1.17.27 1.53.54 1.76 1.84 2.98 1.51.33 3.28.33 3.88 0 7.45-1.48 1.51-.65 2.95-1.69 1.44-1.04 2.38-2.3.93-1.26.93-2.45 0-1.69-2.99-2.63l-6.33-1.44q-1.95-.43-3.12-1.53-1.17-1.1-1.17-2.5 0-2.16 2.7-4.32 1.37-1.12 3.21-1.89 1.83-.78 3.87-1.19 2.03-.41 3.9-.41 2.67 0 4.56.82 1.89.83 2.36 2.42.1.36.1.79 0 2.19-2.19 3.06-1.33.54-2.27.54-.58 0-.9-.22-.07-.07-.07-.18 0-.25 1.01-.29.61-.03 1-.1.4-.08.58-.15 1.37-.72 1.37-2.12 0-.72-.4-1.51-1.11-2.06-5.58-2.06-1.62 0-3.35.35-1.72.34-3.27 1-1.55.67-2.63 1.68-1.87 1.73-1.87 3.09 0 1.05 1.02 1.86 1.03.81 3.12 1.2l4.25.8q2.44.46 3.96 1.38 1.51.92 1.51 2.79 0 1.66-.83 3.1-.83 1.44-2.21 2.57-1.39 1.14-3.15 1.89-4 1.77-9.44 1.77-.68 0-1.36-.04-.69-.04-1.34-.11.51.29 1.28.58.78.29 1.78.54.11.03.11.14 0 .33-.75.33m-4.76-2.78q-.97-1.08-1.51-2.23-.79-1.8-1.19-4.43-.28-1.9-.61-1.9-.29 0-.77.43-.49.43-.49 1.83 0 2.74 1.95 4.76.97 1 2.62 1.54"></path><rect width="31.28" height="25.92" x="-15.64" y="-12.96" fill="none" rx="0" ry="0" transform="translate(92.03 545.76)"></rect><path fill="#f7d3c1" d="M105.662 555.015q-1.15 0-1.82-.56-.66-.55-.66-1.99 0-.83.5-2.11.51-1.28 1.26-2.75.76-1.48 1.51-2.92-.46.11-.82.11-1.08 0-1.08-.83 0-.4.3-.61.31-.22.56-.25h.09q.09 0 .23-.04h2.09q.65-.83 1.33-1.76.98-1.23 1.55-1.44h.11q.25 0 .72.25.58.32.58.65 0 .46-1.73 2.41.32.03.93.03h2.76q.81 0 1.69-.01.88-.02 1.53-.04t.72-.02q.11.04.11.11 0 .32-4.25.86-2.41.33-3.69.51-1.28.18-1.39.21-.5.44-1.22 1.48t-1.44 2.34q-.72 1.3-1.21 2.47-.48 1.17-.48 1.81 0 .58.43.96t1.4.38q.65 0 1.55-.29t1.71-.67q.81-.38 1.17-.59.94-.58 2.07-1.53 1.14-.96 2.25-2.18.51-.5.69-.5.1 0 .1.14 0 .29-.54.94-.86 1.04-1.92 1.99-1.06.96-2.36 1.75-1.48.9-2.83 1.3-1.35.39-2.5.39"></path><rect width="14.94" height="15.15" x="-7.47" y="-7.58" fill="none" rx="0" ry="0" transform="translate(111.15 547.94)"></rect><path fill="#f7d3c1" d="M116.532 554.985q-.86 0-1.72-.62-.87-.61-.98-1.44-.36-2.77 3.5-6.58 3.81-3.82 6.87-3.82.83 0 1.3.4.25.25.38.68.12.43.19.43.15 0 .26-.05.1-.06.25-.06.43 0 .75.33.33.32.36.57.04.08-2.3 3.57-2.34 3.42-2.12 4.64.18.83.79.83 1.87 0 6.84-6.19.11-.15.21-.15.18 0 .18.26 0 .28-.32.72-4.57 6.15-7.02 6.15-.32 0-.61-.11-1.59-.61-1.59-2.37 0-.61.15-1.23l-2.23 2.16q-1.01 1.01-1.82 1.44-.81.44-1.32.44m-.32-.8q2.09 0 5.69-4.57l3.81-5.25q-.28-.51-.93-.51-2.2 0-5.94 3.53-3.89 3.6-3.49 5.94.18.86.86.86"></path><rect width="17.61" height="12.46" x="-8.8" y="-6.23" fill="none" rx="0" ry="0" transform="translate(122.99 549.25)"></rect><path fill="#f7d3c1" d="M131.692 555.265q-1.15 0-2.09-.73-.93-.74-.93-1.97 0-2.55 3.13-5.83 3.2-3.31 5.72-3.31.87 0 1.37.45.5.45.5 1.1 0 .9-.43 1.65-.5.94-1.44.94-.93 0-.93-.58 0-.39.46-1.18.51-.83.51-.87 0-.07-.11-.07-1.01.11-2.81 1.48-.79.61-1.38 1.15-.6.54-.96 1.04l-1.4 2.05q-.22.33-.45 1.12-.24.79-.24 1.19 0 .72.49 1.19.49.46 1.24.46 1.8 0 4.75-2.34 2.38-1.87 3.82-3.78.18-.21.43-.21t.25.14q0 .11-.18.36-1.98 2.63-4.64 4.54-2.84 2.01-4.68 2.01"></path><rect width="12.52" height="11.84" x="-6.26" y="-5.92" fill="none" rx="0" ry="0" transform="translate(135.43 549.85)"></rect><path fill="#f7d3c1" d="M146.522 555.235q-1.19 0-2.1-.69-.92-.68-1.59-1.72-.66-1.05-1.13-2.09-.25.32-.52.83-.27.5-.63 1.18l-1.12 2.24q-1.3-.51-1.3-1.37 0-1.55 4.72-8.61 4.57-6.84 6.3-8.06.18-.11.58-.11 1.11 0 1.11.58 0 .11-.5.77-.51.67-1.26 1.6l-1.53 1.89-1.35 1.66q-.58.7-.65.88 3.28-1.69 5.22-1.69.76 0 1.39.43.63.43.99 1.05.36.61.28 1.18-.28 2.06-2.88 3.39-2.08 1.11-3.81 1.11-1.87 0-2.59-.46-.22-.04-.35.09-.12.12-.05.37 1.01 4.47 3.35 4.47 1.15 0 3.08-1.33 1.92-1.34 4.08-3.89.25-.25.47-.25.18 0 .18.21 0 .18-.25.54-1.05 1.26-2.43 2.61-1.39 1.35-2.86 2.27-1.48.92-2.85.92m-2.09-6.48q1.62 0 4.25-1.33 3.03-1.52 3.03-3.21 0-.29-.33-.57-.32-.29-.68-.29-1.95 0-4.54 1.51-2.84 1.73-3.45 3.78.39 0 1.02.05.63.06.7.06"></path><rect width="16.78" height="18.4" x="-8.39" y="-9.2" fill="none" rx="0" ry="0" transform="translate(147.02 546.53)"></rect><path fill="#f7d3c1" d="M166.542 558.435q-2.85 0-3.96-1.51-1.12-1.51-1.12-4.46 0-3.96 2.31-7.78-2.67-1.69-2.67-5 0-4 3.53-7.1 3.96-3.49 10.22-3.49 1.98 0 3.5.24 1.51.23 2.89.7 1.39.47 2.97 1.19 1.59.72 3.75 1.72 5.25 2.38 7.7 2.38 1.19 0 2.05-.56.87-.56.87-1.38 0-.54-.47-.98-.25-.36-.25-.5 0-.07.07-.07.29 0 .79.61.51.61.51 1.33 0 .79-.6 1.37-.59.58-1.51.88-.92.31-1.89.31-2.7 0-7.96-2.41-1.94-.9-3.34-1.53-1.41-.63-2.6-1.05-1.18-.41-2.35-.61-1.17-.2-2.61-.2-7.46 0-11.74 4.83-.47.5-.9 1.45-.43.96-.7 2-.27 1.05-.27 1.87 0 2.09 1.47 3.24 1.16-1.69 2.69-3.04t3.29-2.14q1.76-.79 3.64-.79 3.24 0 3.24 2.52 0 3.02-3.57 6.59-3.53 3.52-6.55 3.52-1.94 0-1.94-1.65 0-.58.3-1.01.31-.43.74-.32 0 .18-.04.45-.03.27-.03.37 0 .54 1.65.54 2.45 0 5.26-2.59 1.37-1.29 2.36-2.88.99-1.58.99-2.95 0-1.62-2.09-1.62-1.51 0-3.04.83t-2.9 2.14q-1.37 1.31-2.48 2.79.18.07.46.14.29.08.65.15l2.16.07q1.59.07 1.59.36 0 .5-1.44.5-.65 0-1.25-.03-.59-.04-1.13-.11-.4-.07-.77-.16-.38-.09-.74-.24-2.77 4.25-2.77 7.82 0 4.6 3.56 4.6 4.03 0 8.39-5.61l7.05-10.51q3.86-5.73 6.88-5.91l1.37.33q.65.32.65 1.29 0 .51-.36.51-.11 0-.53-.09-.41-.09-.63-.09-2.55 0-6.37 5.36l-7.16 10.01q-4.61 5.36-8.82 5.36"></path><rect width="38.13" height="29.34" x="-19.07" y="-14.67" fill="none" rx="0" ry="0" transform="translate(180.67 544.26)"></rect><path fill="#f7d3c1" d="M185.802 554.875q-.9 0-1.41-.85-.5-.84-.5-1.64 0-2.16 3.13-6.04 3.17-3.93 5.11-3.93 1.84 0 1.84 1.95 0 .28-.05.61-.06.32-.13.68.07.11.36.11.97 0 2.3-.68-.03.61-2.84 1.76.4 1.19-2.38 4.54-2.84 3.49-4.86 3.49Zm.65-1.08q1.54 0 3.96-2.85 2.34-2.77 2.34-3.99-.58-.33-1.44-1.66-1.23 0-3.53 2.95-2.27 2.88-2.2 4.43.04 1.12.87 1.12"></path><rect width="12.56" height="12.46" x="-6.28" y="-6.23" fill="none" rx="0" ry="0" transform="translate(190.67 549.14)"></rect><path fill="#f7d3c1" d="M224.462 558.835q-1.44 0-2.46-1.15-1.03-1.16-1.79-2.96-.75-1.8-1.33-3.7-1.33-4.36-1.11-5.19-2.13 2.85-3.68 4.74-1.54 1.89-2.52 2.82-4.24 4.11-8.6 4.11-1.3 0-2.14-.54-.85-.54-.85-1.8 0-.8.36-1.71.36-.92.9-1.75t1.08-1.37q1.19-1.19 1.98-1.19.15 0 .15.08 0 .18-.54.61-1.26 1.01-2.09 2.32-.83 1.31-.83 2.39 0 2.02 2.84 1.91 4.65-.18 12.89-11.23.47-.61.79-.86l-.57-.22q-.47.18-.76.18-.75 0-.75-.61 0-.83 1.11-1.08.69-.18 1.77.61 1.4-1.58 2.71-3.02 1.32-1.44 2.4-2.36 1.08-.92 1.73-.92.86 0 .86.79 0 .33-.16.67t-.38.34q-.22.04-.22-.22 0-.18.22-.43v-.14q0-.22-.14-.33-.94-.61-5.76 6.09.39.03.84.05.45.02.96.02 8.35 0 10.44-4.32.43-.94.43-1.73 0-1.58-1.48-2.77-1.33-1.08-3.51-1.46-2.18-.38-4.34-.38-4.78 0-10.18 2.63-6.56 3.21-6.56 7.53 0 1.4 1.84 1.4 1.69 0 3.82-1.37 1.83-1.22 2.52-2.48.25-.47.46-.47.26 0 .15.29-.69 2.01-3.06 3.45-2.31 1.41-4.75 1.41-2.92 0-2.7-1.87.54-4.72 5.79-8.03 5.22-3.28 12.6-3.28 2.81 0 5.46.51 2.64.5 4.3 1.87 1.73 1.44 1.73 3.38 0 .83-.4 1.8-.61 1.41-1.87 2.4-1.26.99-2.92 1.6-1.65.61-3.49.9-1.84.29-3.56.29-.94 0-1.79-.08-.84-.07-1.56-.21.21.68.75 2.48.54 1.8 1.37 4.68.25.79.7 1.73.45.94 1.03 1.76.58.83 1.24 1.37.67.54 1.35.54 1.51 0 2.52-3.06.18-.72.4-.72.18 0 .32.69.04.1.04.28 0 .94-1.01 2.31-1.33 1.98-2.99 1.98"></path><rect width="34.35" height="26.5" x="-17.18" y="-13.25" fill="none" rx="0" ry="0" transform="translate(217.66 546.09)"></rect><path fill="#f7d3c1" d="M230.262 555.195q-1.62 0-1.62-2.05 0-.79.48-1.89.49-1.1 1.39-2.32l-.65.61q-.65.61-1.47 1.55-.15.14-.36.14-.15 0-.15-.18t.33-.61l4.96-5.83q.94-1.08 2.06-1.08.82 0 .82.65 0 .25-.21.46-.69.65-1.68 1.84t-1.92 2.56q-.94 1.36-1.57 2.61-.63 1.24-.63 1.99 0 .65.43.65.26 0 .8-.2.54-.19 1.44-.82.9-.63 2.16-1.97.21-.21 1.15-1.29.93-1.08 2.52-3.1 2.81-3.49 3.67-3.49 1.19 0 1.3.97.07.33-1.52 2.13-2.05 2.48-2.8 3.56-1.41 2.05-1.41 3.2 0 .8.54.8t1.39-.53q.84-.52 1.78-1.33.94-.81 1.82-1.69.88-.88 1.53-1.64.21-.25.43-.25t.22.22q0 .07-.04.21-.04.15-.22.33-.57.64-1.47 1.6-.9.95-1.95 1.89-1.04.93-2.01 1.55-.97.61-1.66.61-.83 0-1.44-.45t-.61-1.24q0-.8.25-1.61t.4-1.38q-1.69 1.98-2.97 3.02-1.28 1.05-2.14 1.42-.87.38-1.37.38"></path><rect width="17.61" height="11.77" x="-8.8" y="-5.88" fill="none" rx="0" ry="0" transform="translate(237.19 549.81)"></rect><path fill="#f7d3c1" d="M246.602 554.875q-1.04 0-1.94-.52-.9-.53-.9-1.75 0-1.69 1.2-4.03 1.21-2.34 2.76-4.86 4.21-6.84 5.97-6.84.36 0 .74.27t.42.59l-2.52 3.39q-1.48 1.98-2.67 3.65t-2.05 3.01q-.43.68-.97 1.54-.54.87-.96 1.79-.41.91-.41 1.85 0 .43.25.77.25.35.9.35 1.15 0 3.03-1.25 1.87-1.24 3.7-3.43.18-.22.4-.4.22-.18.36-.18.18 0 .18.22 0 .1-.23.41l-.38.49-.87.97q-.72.79-1.71 1.73-.99.93-2.08 1.58-1.1.65-2.22.65"></path><rect width="11.09" height="18" x="-5.54" y="-9" fill="none" rx="0" ry="0" transform="translate(249.8 546.38)"></rect><path fill="#f7d3c1" d="M254.452 555.265q-1.15 0-2.09-.73-.93-.74-.93-1.97 0-2.55 3.13-5.83 3.2-3.31 5.72-3.31.83 0 1.35.45.52.45.52 1.1 0 2.01-3.2 3.96-2.84 1.73-4.79 1.73-.29 0-.5-.08-.54.98-.54 2.06 0 1.87 1.76 1.87 1.8 0 4.65-2.41 2.19-1.77 3.74-3.75.32-.43.58-.43.21 0 .21.22 0 .21-.29.61-1 1.33-2.16 2.45-1.15 1.11-2.48 2.05-2.77 2.01-4.68 2.01m.22-5.4q1.36 0 3.56-1.36.72-.51 1.42-1.14.7-.63 1.15-1.28.45-.64.45-1.15 0-.47-.75-.47-1.08 0-3.03 1.62-.93.8-1.8 1.73-.86.94-1.47 1.98.21.07.47.07"></path><rect width="12.63" height="11.84" x="-6.32" y="-5.92" fill="none" rx="0" ry="0" transform="translate(258.25 549.85)"></rect><path fill="#f7d3c1" d="M275.082 558.435q-2.85 0-3.96-1.51-1.12-1.51-1.12-4.46 0-3.96 2.31-7.78-2.67-1.69-2.67-5 0-4 3.53-7.1 3.96-3.49 10.22-3.49 1.98 0 3.5.24 1.51.23 2.89.7 1.39.47 2.97 1.19 1.59.72 3.75 1.72 5.25 2.38 7.7 2.38 1.19 0 2.05-.56.87-.56.87-1.38 0-.54-.47-.98-.25-.36-.25-.5 0-.07.07-.07.29 0 .79.61.51.61.51 1.33 0 .79-.6 1.37-.59.58-1.51.88-.92.31-1.89.31-2.7 0-7.96-2.41-1.94-.9-3.34-1.53-1.41-.63-2.6-1.05-1.18-.41-2.35-.61-1.17-.2-2.61-.2-7.46 0-11.74 4.83-.47.5-.9 1.45-.43.96-.7 2-.27 1.05-.27 1.87 0 2.09 1.47 3.24 1.16-1.69 2.69-3.04t3.29-2.14q1.76-.79 3.64-.79 3.24 0 3.24 2.52 0 3.02-3.57 6.59-3.53 3.52-6.55 3.52-1.94 0-1.94-1.65 0-.58.3-1.01.31-.43.74-.32 0 .18-.04.45-.03.27-.03.37 0 .54 1.65.54 2.45 0 5.26-2.59 1.37-1.29 2.36-2.88.99-1.58.99-2.95 0-1.62-2.09-1.62-1.51 0-3.04.83t-2.9 2.14q-1.37 1.31-2.48 2.79.18.07.46.14.29.08.65.15l2.16.07q1.59.07 1.59.36 0 .5-1.44.5-.65 0-1.25-.03-.59-.04-1.13-.11-.4-.07-.77-.16-.38-.09-.74-.24-2.77 4.25-2.77 7.82 0 4.6 3.56 4.6 4.03 0 8.39-5.61l7.05-10.51q3.86-5.73 6.88-5.91l1.37.33q.65.32.65 1.29 0 .51-.36.51-.11 0-.53-.09-.41-.09-.63-.09-2.55 0-6.37 5.36l-7.16 10.01q-4.61 5.36-8.82 5.36"></path><rect width="38.13" height="29.34" x="-19.07" y="-14.67" fill="none" rx="0" ry="0" transform="translate(289.2 544.26)"></rect><path fill="#f7d3c1" d="M291.822 554.985q-1.05 0-1.05-.62 0-.36.44-1.15 1.65-2.95 2.97-5.24 1.31-2.28 2.32-3.87 4.28-6.87 6.05-7.45.07 0 .1-.02.04-.01.08-.01.46 0 .61.75-.11.76-3.75 5.47-1.9 2.42-2.97 3.98-1.06 1.57-1.31 2.29 1.19-.87 2.56-1.84 1.36-.97 2.66-1.85 1.3-.88 2.34-1.44 1.04-.56 1.62-.63.07 0 .18-.02.11-.02.14-.02 1.01 0 1.01.94 0 .25-.65 1.11-.64.87-1.98 2.67-2.37 3.17-2.37 4.75 0 .83.61.83.65-.04 1.49-.58.85-.54 1.71-1.33.87-.79 1.57-1.57.7-.77 1.06-1.2.33-.33.51-.33.14 0 .14.15 0 .29-.29.68-.43.54-1.28 1.41-.84.86-1.83 1.74-.99.88-1.87 1.48-.89.59-1.32.59-2.12 0-2.12-2.48 0-1.41 1.29-3.67.51-.87 1.05-1.73.54-.87 1.08-1.73-4.61 2.3-8.35 6.8-.47.65-.98 1.39-.5.74-.9 1.24-.39.51-.57.51"></path><rect width="17.14" height="18.36" x="-8.57" y="-9.18" fill="none" rx="0" ry="0" transform="translate(299.84 546.3)"></rect><path fill="#f7d3c1" d="M308.162 555.265q-1.15 0-2.09-.73-.93-.74-.93-1.97 0-2.55 3.13-5.83 3.2-3.31 5.72-3.31.83 0 1.35.45.53.45.53 1.1 0 2.01-3.21 3.96-2.84 1.73-4.79 1.73-.28 0-.5-.08-.54.98-.54 2.06 0 1.87 1.76 1.87 1.8 0 4.65-2.41 2.19-1.77 3.74-3.75.33-.43.58-.43.21 0 .21.22 0 .21-.28.61-1.01 1.33-2.16 2.45-1.16 1.11-2.49 2.05-2.77 2.01-4.68 2.01m.22-5.4q1.37 0 3.56-1.36.72-.51 1.42-1.14.71-.63 1.16-1.28.45-.64.45-1.15 0-.47-.76-.47-1.08 0-3.02 1.62-.94.8-1.8 1.73-.87.94-1.48 1.98.22.07.47.07"></path><rect width="12.63" height="11.84" x="-6.32" y="-5.92" fill="none" rx="0" ry="0" transform="translate(311.96 549.85)"></rect><path fill="#f7d3c1" d="M324.072 554.875q-.86 0-.86-.97.4-2.02 1.62-4.54.58-1.22 1.17-2.41.59-1.19 1.17-2.41-1.33.9-2.66 1.99-1.34 1.1-2.6 2.47-1.47 1.58-3.42 4.07-1.4 1.76-1.62 1.76-.5 0-.82-.47-.33-.46-.33-.79 0-.47.83-2.41.25-.61.52-1.21.27-.59.52-1.17l-2.16 2.27-.43.43q-.36.36-.57.36-.18 0-.18-.25 0-.07.05-.2.05-.12.23-.3.54-.54 1.12-1.15.58-.62 1.19-1.41.47-.61 1.35-1.82.88-1.2 2.18-3.04.39-.54 1.11-.54.72 0 .72.69 0 .25-1.83 3.34-.94 1.66-1.5 2.7-.56 1.05-.7 1.55.79-.86 1.89-1.94 1.1-1.08 2.54-2.41 4.43-4.11 5.83-4.11.4 0 .77.25.38.26.38.65 0 .18-1.4 2.63-1.37 2.48-1.51 2.95 3.99-3.35 3.99-3.38 3.39-2.63 4.86-2.63.43 0 .81.27.38.27.38.63 0 .07-2.3 3.02-2.38 2.99-2.67 4.9-.14 1.3 1.33 1.3.9 0 2.52-1.16 1.62-1.15 3.39-3.16.21-.26.47-.49.25-.23.43-.23.21 0 .21.18 0 .25-.32.57-.94 1.12-2.21 2.31-1.28 1.18-2.54 1.99t-2.23.81q-2.45 0-2.45-2.26 0-.8.43-1.86t.86-1.92q1.05-2.02 2.27-3.57-1.15.58-2.39 1.51-1.24.94-2.58 2.2-3.09 3.02-4.24 6.12-.18.29-.62.29"></path><rect width="25.84" height="11.92" x="-12.92" y="-5.96" fill="none" rx="0" ry="0" transform="translate(327.67 549.41)"></rect><path fill="#f7d3c1" d="M350.932 558.975q-5.54-.47-5.54-5.69 0-3.09 1.94-6.55 1.15-2.09 2.9-4.07 1.74-1.98 3.81-3.58 2.07-1.6 4.25-2.54 2.18-.93 4.2-.93 3.56 0 3.56 2.63 0 1.76-1.08 3.92t-2.2 2.74q-.1.03-.25.03-.11 0-.11-.07l1.19-1.94q1.23-2.02 1.23-3.53 0-1.08-.58-2.05-.58-.98-2.05-.98-1.8 0-3.69 1.01t-3.66 2.67q-1.76 1.65-3.2 3.65-1.44 2-2.3 3.94-1.84 4.14-1.84 6.7 0 3.85 3.92 3.85 3.75 0 10.16-4.82 1.47-1.12 3.79-3.14 2.33-2.01 5.46-4.89-.43.03-1.08.09-.65.05-1.51.2-.36.07-.69.12-.32.06-.61.06-.72-.08-.61-.36.14-1.34 1.37-1.34 1.11.15 2.1.22t1.89.07q1.41-1.29 3.73-3.62 2.32-2.32 5.52-5.7 4.14-4.36 5.04-4.36.4 0 .4.72 0 .29-.07.72t-.22 1.01q-.36 1.37-.75 1.66-1.12.79-1.86 2.03-.74 1.24-1.49 2.75-.76 1.55-1.39 2.76-.63 1.2-1.13 2.14l3.49-.07q1.3 0 1.3.18 0 .03-.08.11-.61.39-5.18.72-3.35 6.51-3.35 8.92 0 1.66 1.05 1.66.39 0 1-.5.58-.47.72-.47 0-.07.04-.04.04.04-.04.04-.18.65-1.06 1.17-.88.52-1.85.52-.9 0-1.19-.58-.29-.57-.29-1.58 0-3.64 2.77-9.25l-4.32.11q-4.82 4.71-9.68 8.28-7.74 5.61-11.88 5.25m26.21-14.58q.43-.83 1.73-3 1.29-2.18 3.49-5.67l-9.22 8.64Z"></path><rect width="41" height="28.39" x="-20.5" y="-14.2" fill="none" rx="0" ry="0" transform="translate(366.4 545.41)"></rect><path fill="#f7d3c1" d="M384.882 554.875q-1.05 0-1.95-.52-.9-.53-.9-1.75 0-1.69 1.21-4.03 1.21-2.34 2.75-4.86 4.22-6.84 5.98-6.84.36 0 .74.27t.41.59l-2.52 3.39q-1.47 1.98-2.66 3.65-1.19 1.67-2.05 3.01-.44.68-.98 1.54-.54.87-.95 1.79-.41.91-.41 1.85 0 .43.25.77.25.35.9.35 1.15 0 3.02-1.25 1.87-1.24 3.71-3.43.18-.22.4-.4.21-.18.36-.18.18 0 .18.22 0 .1-.24.41-.23.31-.38.49l-.86.97q-.72.79-1.71 1.73-.99.93-2.09 1.58-1.1.65-2.21.65"></path><rect width="11.09" height="18" x="-5.54" y="-9" fill="none" rx="0" ry="0" transform="translate(388.08 546.38)"></rect><path fill="#f7d3c1" d="M393.632 554.875q-1.05 0-1.95-.52-.9-.53-.9-1.75 0-1.69 1.21-4.03 1.2-2.34 2.75-4.86 4.21-6.84 5.98-6.84.36 0 .74.27.37.27.41.59l-2.52 3.39q-1.48 1.98-2.66 3.65-1.19 1.67-2.06 3.01-.43.68-.97 1.54-.54.87-.95 1.79-.42.91-.42 1.85 0 .43.26.77.25.35.9.35 1.15 0 3.02-1.25 1.87-1.24 3.71-3.43.18-.22.39-.4.22-.18.36-.18.18 0 .18.22 0 .1-.23.41-.23.31-.38.49l-.86.97q-.72.79-1.71 1.73-.99.93-2.09 1.58-1.1.65-2.21.65"></path><rect width="11.09" height="18" x="-5.54" y="-9" fill="none" rx="0" ry="0" transform="translate(396.83 546.38)"></rect><path fill="#f7d3c1" d="M411.912 209.286a46.95 46.95 0 0 0-18-36.98 46.956 46.956 0 0 0 2.477-41.052 46.956 46.956 0 0 0-30.78-27.273A46.956 46.956 0 0 0 352.186 65.1a46.956 46.956 0 0 0-38.876-13.418 46.96 46.96 0 0 0-27.273-30.79 46.956 46.956 0 0 0-41.058 2.487A46.956 46.956 0 0 0 208 5.374a46.956 46.956 0 0 0-36.98 18.005 46.956 46.956 0 0 0-41.052-2.482 46.96 46.96 0 0 0-27.273 30.785A46.956 46.956 0 0 0 63.814 65.1a46.956 46.956 0 0 0-13.423 38.876 46.956 46.956 0 0 0-30.78 27.273 46.956 46.956 0 0 0 2.477 41.058 46.95 46.95 0 0 0-18 36.979 46.95 46.95 0 0 0 18 36.98 46.956 46.956 0 0 0-2.477 41.052 46.956 46.956 0 0 0 30.78 27.273 46.956 46.956 0 0 0 13.423 38.881 46.956 46.956 0 0 0 38.876 13.418 46.956 46.956 0 0 0 27.273 30.79 46.956 46.956 0 0 0 41.058-2.487A46.956 46.956 0 0 0 208 413.198a46.956 46.956 0 0 0 36.98-18.005 46.956 46.956 0 0 0 41.052 2.482 46.956 46.956 0 0 0 27.273-30.785 46.956 46.956 0 0 0 38.881-13.418 46.956 46.956 0 0 0 13.423-38.876 46.956 46.956 0 0 0 30.78-27.273 46.956 46.956 0 0 0-2.477-41.058 46.95 46.95 0 0 0 18-36.979M208 332.592c-68.096 0-123.3-55.21-123.3-123.306S139.904 85.98 208 85.98s123.306 55.21 123.306 123.306S276.096 332.592 208 332.592"></path><path fill="#f7d3c1" d="M238.265 212.023c-.442-8.565-1.68-17.012-3.643-25.368-.475-2.02-.247-4.197-.592-6.262-.597-3.572-1.242-7.15-2.14-10.657-.93-3.617-5.35-5.014-8.452-2.854-.28.195-.539.417-.9.7-1.194-2.29-3.104-3.512-5.618-3.762-2.48-.246-4.59.506-6.174 2.534-2.501-4.549-9.239-5.312-12.756-1.07-.16-.413-.294-.74-.411-1.07-1.682-4.718-3.637-9.304-6.123-13.67-1.163-2.04-2.83-3.24-5.005-3.884-.204-.06-1.746-.347-3.515-.018-1.858.613-3.119 1.558-4.304 3.159-.461.622-1.05 3.508-.649 4.945.225.803 3.49 8.275 5.217 12.495 3.01 7.354 5.628 14.844 7.604 22.55.222.867.106 1.304-.743 1.788-3.102 1.77-4.453 5.432-3.432 8.917 1.024 3.498 3.976 5.694 7.62 5.528.891-.04 1.307.254 1.448 1.018.263 1.415.635 2.836.673 4.262.372 13.957-1.465 27.58-6.364 40.716-2.167 5.81-4.905 11.347-8.01 16.71-1.057 1.824-.865 2.585.882 3.64h.689c.587-.563 1.338-1.03 1.737-1.704a108.96 108.96 0 0 0 8.366-17.423c3.707-9.918 5.746-20.193 6.339-30.735.326-5.795.963-11.647-.775-17.447.97-.263 1.96-.517 2.942-.8.589-.17 1.02-.104 1.53.353 2.158 1.932 5.348 2.37 7.646.854 1.294-.852 2.292-2.151 3.477-3.304 1.434 1.556 3.443 2.254 5.794 1.828 2.391-.433 3.79-2.091 4.845-4.148 2.839 1.591 5.306 1.006 7.699-1.428.42 4.48.9 8.576 1.172 12.685.7 10.565.176 21.069-1.798 31.49-1.73 9.132-4.878 17.792-8.637 26.255-.813 1.828-.635 2.45.964 3.525h.916c.557-.685 1.291-1.29 1.645-2.069 4.414-9.7 7.807-19.72 9.479-30.285 1.47-9.287 1.84-18.621 1.357-27.994M215.384 167.7c1.48-.325 3.274.344 3.495 1.466.835 4.215 1.58 8.447 2.406 12.917-2.19-.525-3.958-.067-5.712 1.081-.434-2.59-.855-5.01-1.24-7.435a154.876 154.876 0 0 1-.787-5.551c-.157-1.297.55-2.194 1.838-2.478m-13.029-1.068c2.079-.983 4.52.117 4.957 2.345 1.01 5.164 1.929 10.346 2.914 15.515.13.68.004 1.044-.693 1.277-1.806.603-3.587 1.275-5.488 1.958-1.102-6.227-2.187-12.27-3.23-18.319-.217-1.269.383-2.227 1.54-2.776m-20.07-10.839c-.477-.963-.543-2.215-.518-3.324.03-1.26 1.232-2.217 2.51-2.195 1.569.028 2.861.562 3.719 2.021 3.623 6.167 6.071 12.82 7.985 19.666 1.479 5.284 2.682 10.647 4.001 15.975.062.252.075.518.126.897l-5.212 1.294c-.577-2.076-1.096-4.095-1.695-6.09-2.905-9.695-6.415-19.157-10.916-28.244m37.709 44.41c-1.09.306-2.09-.211-2.649-1.395a6486.785 6486.785 0 0 0 4.416-2.343c.3 1.975-.363 3.343-1.767 3.738m-.079-7.145c-7.898 4.544-16.463 7.205-25.315 9.06-2.435.51-4.434-1.365-4.419-3.979.011-1.947 1.238-3.385 3.296-3.802 7.16-1.448 14.154-3.443 20.848-6.406 1.219-.54 2.436-1.091 3.614-1.715.979-.52 1.9-.79 2.868-.026 1.026.816 1.625 1.88 1.466 3.182-.192 1.565-.86 2.824-2.358 3.686m10.71-1.07c-.058 1.028-.083 2.065-.227 3.082-.186 1.288-1.465 2.115-2.478 1.676-.712-.308-.984-.842-.97-1.638.043-2.179.016-4.355.016-5.761-.1-6.362-.563-11.904-1.883-17.355-.268-1.11.161-1.936 1.072-2.181 1.073-.288 1.845.22 2.18 1.437 1.863 6.792 2.684 13.699 2.29 20.74"></path></svg></svg>